<svg width="428" height="283" viewBox="0 0 428 283" fill="none" xmlns="http://www.w3.org/2000/svg">
<rect width="428" height="283" rx="10" fill="#1D1348"/>
<mask id="mask0_2_514" style="mask-type:alpha" maskUnits="userSpaceOnUse" x="0" y="0" width="428" height="283">
<rect width="428" height="283" rx="10" fill="#1D1348"/>
</mask>
<g mask="url(#mask0_2_514)">
<circle cx="134" r="4" fill="white" fill-opacity="0.3"/>
<circle cx="148.5" r="4" fill="white" fill-opacity="0.3"/>
<circle cx="163" r="4" fill="white" fill-opacity="0.3"/>
<circle cx="178" r="4" fill="white" fill-opacity="0.3"/>
<circle cx="192.5" r="4" fill="white" fill-opacity="0.3"/>
<circle cx="207" r="4" fill="white" fill-opacity="0.3"/>
<circle cx="222" r="4" fill="white" fill-opacity="0.3"/>
<circle cx="236.5" r="4" fill="white" fill-opacity="0.3"/>
<circle cx="251" r="4" fill="white" fill-opacity="0.3"/>
<circle cx="266" r="4" fill="white" fill-opacity="0.3"/>
<circle cx="280.5" r="4" fill="white" fill-opacity="0.3"/>
<circle cx="295" r="4" fill="white" fill-opacity="0.3"/>
<circle cx="310" r="4" fill="white" fill-opacity="0.3"/>
<circle cx="324.5" r="4" fill="white" fill-opacity="0.3"/>
<circle cx="339" r="4" fill="white" fill-opacity="0.3"/>
<circle cx="354" r="4" fill="white" fill-opacity="0.3"/>
<circle cx="368.5" r="4" fill="white" fill-opacity="0.3"/>
<circle cx="383" r="4" fill="white" fill-opacity="0.3"/>
<circle cx="398" r="4" fill="white" fill-opacity="0.3"/>
<circle cx="412.5" r="4" fill="white" fill-opacity="0.3"/>
<circle cx="141" cy="12" r="4" fill="white" fill-opacity="0.3"/>
<circle cx="155.5" cy="12" r="4" fill="white" fill-opacity="0.3"/>
<circle cx="170" cy="12" r="4" fill="white" fill-opacity="0.3"/>
<circle cx="185" cy="12" r="4" fill="white" fill-opacity="0.3"/>
<circle cx="199.5" cy="12" r="4" fill="white" fill-opacity="0.3"/>
<circle cx="214" cy="12" r="4" fill="white" fill-opacity="0.3"/>
<circle cx="229" cy="12" r="4" fill="white" fill-opacity="0.3"/>
<circle cx="243.5" cy="12" r="4" fill="white" fill-opacity="0.3"/>
<circle cx="258" cy="12" r="4" fill="white" fill-opacity="0.3"/>
<circle cx="273" cy="12" r="4" fill="white" fill-opacity="0.3"/>
<circle cx="287.5" cy="12" r="4" fill="white" fill-opacity="0.3"/>
<circle cx="302" cy="12" r="4" fill="white" fill-opacity="0.3"/>
<circle cx="317" cy="12" r="4" fill="white" fill-opacity="0.3"/>
<circle cx="331.5" cy="12" r="4" fill="white" fill-opacity="0.3"/>
<circle cx="346" cy="12" r="4" fill="white" fill-opacity="0.3"/>
<circle cx="361" cy="12" r="4" fill="white" fill-opacity="0.3"/>
<circle cx="375.5" cy="12" r="4" fill="white" fill-opacity="0.3"/>
<circle cx="390" cy="12" r="4" fill="white" fill-opacity="0.3"/>
<circle cx="405" cy="12" r="4" fill="white" fill-opacity="0.3"/>
<circle cx="419.5" cy="12" r="4" fill="white" fill-opacity="0.3"/>
<circle cx="163" cy="24" r="4" fill="white" fill-opacity="0.3"/>
<circle cx="177.5" cy="24" r="4" fill="white" fill-opacity="0.3"/>
<circle cx="192.5" cy="24" r="4" fill="white" fill-opacity="0.3"/>
<circle cx="207" cy="24" r="4" fill="white" fill-opacity="0.3"/>
<circle cx="221" cy="24" r="4" fill="white" fill-opacity="0.3"/>
<circle cx="236" cy="24" r="4" fill="white" fill-opacity="0.3"/>
<circle cx="250.5" cy="24" r="4" fill="white" fill-opacity="0.3"/>
<circle cx="265" cy="24" r="4" fill="white" fill-opacity="0.3"/>
<circle cx="280" cy="24" r="4" fill="white" fill-opacity="0.3"/>
<circle cx="294.5" cy="24" r="4" fill="white" fill-opacity="0.3"/>
<circle cx="309" cy="24" r="4" fill="white" fill-opacity="0.3"/>
<circle cx="324" cy="24" r="4" fill="white" fill-opacity="0.3"/>
<circle cx="339" cy="24" r="4" fill="white" fill-opacity="0.3"/>
<circle cx="353.5" cy="24" r="4" fill="white" fill-opacity="0.3"/>
<circle cx="368.5" cy="24" r="4" fill="white" fill-opacity="0.3"/>
<circle cx="383" cy="24" r="4" fill="white" fill-opacity="0.3"/>
<circle cx="397.5" cy="24" r="4" fill="white" fill-opacity="0.3"/>
<circle cx="412" cy="24" r="4" fill="white" fill-opacity="0.3"/>
<circle cx="426.5" cy="24" r="4" fill="white" fill-opacity="0.3"/>
<circle cx="177.5" cy="49" r="4" fill="white" fill-opacity="0.3"/>
<circle cx="192" cy="49" r="4" fill="white" fill-opacity="0.3"/>
<circle cx="206" cy="49" r="4" fill="white" fill-opacity="0.3"/>
<circle cx="221" cy="49" r="4" fill="white" fill-opacity="0.3"/>
<circle cx="235.5" cy="49" r="4" fill="white" fill-opacity="0.3"/>
<circle cx="250" cy="49" r="4" fill="white" fill-opacity="0.3"/>
<circle cx="265" cy="49" r="4" fill="white" fill-opacity="0.3"/>
<circle cx="279.5" cy="49" r="4" fill="white" fill-opacity="0.3"/>
<circle cx="294" cy="49" r="4" fill="white" fill-opacity="0.3"/>
<circle cx="309" cy="49" r="4" fill="white" fill-opacity="0.3"/>
<circle cx="324" cy="49" r="4" fill="white" fill-opacity="0.3"/>
<circle cx="338.5" cy="49" r="4" fill="white" fill-opacity="0.3"/>
<circle cx="353.5" cy="49" r="4" fill="white" fill-opacity="0.3"/>
<circle cx="368" cy="49" r="4" fill="white" fill-opacity="0.3"/>
<circle cx="382.5" cy="49" r="4" fill="white" fill-opacity="0.3"/>
<circle cx="397" cy="49" r="4" fill="white" fill-opacity="0.3"/>
<circle cx="411.5" cy="49" r="4" fill="white" fill-opacity="0.3"/>
<circle cx="176.5" cy="74" r="4" fill="white" fill-opacity="0.3"/>
<circle cx="191.5" cy="74" r="4" fill="white" fill-opacity="0.3"/>
<circle cx="206" cy="74" r="4" fill="white" fill-opacity="0.3"/>
<circle cx="220.5" cy="74" r="4" fill="white" fill-opacity="0.3"/>
<circle cx="235.5" cy="74" r="4" fill="white" fill-opacity="0.3"/>
<circle cx="250" cy="74" r="4" fill="white" fill-opacity="0.3"/>
<circle cx="264.5" cy="74" r="4" fill="white" fill-opacity="0.3"/>
<circle cx="279.5" cy="74" r="4" fill="white" fill-opacity="0.3"/>
<circle cx="294.5" cy="74" r="4" fill="white" fill-opacity="0.3"/>
<circle cx="309" cy="74" r="4" fill="white" fill-opacity="0.3"/>
<circle cx="324" cy="74" r="4" fill="white" fill-opacity="0.3"/>
<circle cx="338.5" cy="74" r="4" fill="white" fill-opacity="0.3"/>
<circle cx="353" cy="74" r="4" fill="white" fill-opacity="0.3"/>
<circle cx="367.5" cy="74" r="4" fill="white" fill-opacity="0.3"/>
<circle cx="382" cy="74" r="4" fill="white" fill-opacity="0.3"/>
<circle cx="171" cy="86" r="4" fill="white" fill-opacity="0.3"/>
<circle cx="186" cy="86" r="4" fill="white" fill-opacity="0.3"/>
<circle cx="200.5" cy="86" r="4" fill="white" fill-opacity="0.3"/>
<circle cx="215" cy="86" r="4" fill="white" fill-opacity="0.3"/>
<circle cx="230" cy="86" r="4" fill="white" fill-opacity="0.3"/>
<circle cx="244.5" cy="86" r="4" fill="white" fill-opacity="0.3"/>
<circle cx="259" cy="86" r="4" fill="white" fill-opacity="0.3"/>
<circle cx="274" cy="86" r="4" fill="white" fill-opacity="0.3"/>
<circle cx="289" cy="86" r="4" fill="white" fill-opacity="0.3"/>
<circle cx="303.5" cy="86" r="4" fill="white" fill-opacity="0.3"/>
<circle cx="318.5" cy="86" r="4" fill="white" fill-opacity="0.3"/>
<circle cx="333" cy="86" r="4" fill="white" fill-opacity="0.3"/>
<circle cx="347.5" cy="86" r="4" fill="white" fill-opacity="0.3"/>
<circle cx="362" cy="86" r="4" fill="white" fill-opacity="0.3"/>
<circle cx="198.5" cy="112" r="4" fill="white" fill-opacity="0.3"/>
<circle cx="213" cy="112" r="4" fill="white" fill-opacity="0.3"/>
<circle cx="228" cy="112" r="4" fill="white" fill-opacity="0.3"/>
<circle cx="242.5" cy="112" r="4" fill="white" fill-opacity="0.3"/>
<circle cx="257" cy="112" r="4" fill="white" fill-opacity="0.3"/>
<circle cx="272" cy="112" r="4" fill="white" fill-opacity="0.3"/>
<circle cx="287" cy="112" r="4" fill="white" fill-opacity="0.3"/>
<circle cx="301.5" cy="112" r="4" fill="white" fill-opacity="0.3"/>
<circle cx="316.5" cy="112" r="4" fill="white" fill-opacity="0.3"/>
<circle cx="331" cy="112" r="4" fill="white" fill-opacity="0.3"/>
<circle cx="345.5" cy="112" r="4" fill="white" fill-opacity="0.3"/>
<circle cx="346" cy="286" r="4" fill="white" fill-opacity="0.3"/>
<circle cx="361" cy="286" r="4" fill="white" fill-opacity="0.3"/>
<circle cx="375.5" cy="286" r="4" fill="white" fill-opacity="0.3"/>
<circle cx="390.5" cy="286" r="4" fill="white" fill-opacity="0.3"/>
<circle cx="405" cy="286" r="4" fill="white" fill-opacity="0.3"/>
<circle cx="419.5" cy="286" r="4" fill="white" fill-opacity="0.3"/>
<circle cx="338" cy="274" r="4" fill="white" fill-opacity="0.3"/>
<circle cx="353" cy="274" r="4" fill="white" fill-opacity="0.3"/>
<circle cx="367.5" cy="274" r="4" fill="white" fill-opacity="0.3"/>
<circle cx="382.5" cy="274" r="4" fill="white" fill-opacity="0.3"/>
<circle cx="397" cy="274" r="4" fill="white" fill-opacity="0.3"/>
<circle cx="411.5" cy="274" r="4" fill="white" fill-opacity="0.3"/>
<circle cx="426" cy="274" r="4" fill="white" fill-opacity="0.3"/>
<circle cx="353" cy="224" r="4" fill="white" fill-opacity="0.3"/>
<circle cx="367.5" cy="224" r="4" fill="white" fill-opacity="0.3"/>
<circle cx="382.5" cy="224" r="4" fill="white" fill-opacity="0.3"/>
<circle cx="397" cy="224" r="4" fill="white" fill-opacity="0.3"/>
<circle cx="411.5" cy="224" r="4" fill="white" fill-opacity="0.3"/>
<circle cx="426" cy="224" r="4" fill="white" fill-opacity="0.3"/>
<circle cx="338" cy="249" r="4" fill="white" fill-opacity="0.3"/>
<circle cx="353" cy="249" r="4" fill="white" fill-opacity="0.3"/>
<circle cx="367.5" cy="249" r="4" fill="white" fill-opacity="0.3"/>
<circle cx="382.5" cy="249" r="4" fill="white" fill-opacity="0.3"/>
<circle cx="397" cy="249" r="4" fill="white" fill-opacity="0.3"/>
<circle cx="411.5" cy="249" r="4" fill="white" fill-opacity="0.3"/>
<circle cx="426" cy="249" r="4" fill="white" fill-opacity="0.3"/>
<circle cx="331" cy="212" r="4" fill="white" fill-opacity="0.3"/>
<circle cx="346" cy="212" r="4" fill="white" fill-opacity="0.3"/>
<circle cx="360.5" cy="212" r="4" fill="white" fill-opacity="0.3"/>
<circle cx="375.5" cy="212" r="4" fill="white" fill-opacity="0.3"/>
<circle cx="390" cy="212" r="4" fill="white" fill-opacity="0.3"/>
<circle cx="404.5" cy="212" r="4" fill="white" fill-opacity="0.3"/>
<circle cx="419" cy="212" r="4" fill="white" fill-opacity="0.3"/>
<circle cx="331" cy="187" r="4" fill="white" fill-opacity="0.3"/>
<circle cx="419" cy="187" r="4" fill="white" fill-opacity="0.3"/>
<circle cx="324" cy="199" r="4" fill="white" fill-opacity="0.3"/>
<circle cx="368.5" cy="199" r="4" fill="white" fill-opacity="0.3"/>
<circle cx="383" cy="199" r="4" fill="white" fill-opacity="0.3"/>
<circle cx="397.5" cy="199" r="4" fill="white" fill-opacity="0.3"/>
<circle cx="287" cy="187" r="4" fill="white" fill-opacity="0.3"/>
<circle cx="301.5" cy="187" r="4" fill="white" fill-opacity="0.3"/>
<circle cx="316" cy="187" r="4" fill="white" fill-opacity="0.3"/>
<circle cx="295" cy="174" r="4" fill="white" fill-opacity="0.3"/>
<circle cx="310" cy="174" r="4" fill="white" fill-opacity="0.3"/>
<circle cx="251" cy="174" r="4" fill="white" fill-opacity="0.3"/>
<circle cx="265.5" cy="174" r="4" fill="white" fill-opacity="0.3"/>
<circle cx="280" cy="174" r="4" fill="white" fill-opacity="0.3"/>
<circle cx="266" cy="149" r="4" fill="white" fill-opacity="0.3"/>
<circle cx="222" cy="149" r="4" fill="white" fill-opacity="0.3"/>
<circle cx="236.5" cy="149" r="4" fill="white" fill-opacity="0.3"/>
<circle cx="214" cy="136" r="4" fill="white" fill-opacity="0.3"/>
<circle cx="228.5" cy="136" r="4" fill="white" fill-opacity="0.3"/>
<circle cx="251" cy="149" r="4" fill="white" fill-opacity="0.3"/>
<circle cx="397" cy="174" r="4" fill="white" fill-opacity="0.3"/>
<circle cx="412" cy="174" r="4" fill="white" fill-opacity="0.3"/>
<circle cx="353" cy="174" r="4" fill="white" fill-opacity="0.3"/>
<circle cx="367.5" cy="174" r="4" fill="white" fill-opacity="0.3"/>
<circle cx="382" cy="174" r="4" fill="white" fill-opacity="0.3"/>
<circle cx="346" cy="161" r="4" fill="white" fill-opacity="0.3"/>
<circle cx="360.5" cy="161" r="4" fill="white" fill-opacity="0.3"/>
<circle cx="338" cy="149" r="4" fill="white" fill-opacity="0.3"/>
<circle cx="352.5" cy="149" r="4" fill="white" fill-opacity="0.3"/>
<circle cx="331" cy="136" r="4" fill="white" fill-opacity="0.3"/>
<circle cx="345.5" cy="136" r="4" fill="white" fill-opacity="0.3"/>
<circle cx="375" cy="161" r="4" fill="white" fill-opacity="0.3"/>
<circle cx="244" cy="161" r="4" fill="white" fill-opacity="0.3"/>
<circle cx="258.5" cy="161" r="4" fill="white" fill-opacity="0.3"/>
<circle cx="273" cy="161" r="4" fill="white" fill-opacity="0.3"/>
<circle cx="303" cy="161" r="4" fill="white" fill-opacity="0.3"/>
<circle cx="317.5" cy="161" r="4" fill="white" fill-opacity="0.3"/>
<circle cx="412" cy="199" r="4" fill="white" fill-opacity="0.3"/>
<circle cx="346" cy="237" r="4" fill="white" fill-opacity="0.3"/>
<circle cx="360.5" cy="237" r="4" fill="white" fill-opacity="0.3"/>
<circle cx="375.5" cy="237" r="4" fill="white" fill-opacity="0.3"/>
<circle cx="390" cy="237" r="4" fill="white" fill-opacity="0.3"/>
<circle cx="404.5" cy="237" r="4" fill="white" fill-opacity="0.3"/>
<circle cx="419" cy="237" r="4" fill="white" fill-opacity="0.3"/>
<circle cx="345" cy="262" r="4" fill="white" fill-opacity="0.3"/>
<circle cx="359.5" cy="262" r="4" fill="white" fill-opacity="0.3"/>
<circle cx="374.5" cy="262" r="4" fill="white" fill-opacity="0.3"/>
<circle cx="389" cy="262" r="4" fill="white" fill-opacity="0.3"/>
<circle cx="403.5" cy="262" r="4" fill="white" fill-opacity="0.3"/>
<circle cx="418" cy="262" r="4" fill="white" fill-opacity="0.3"/>
<circle cx="207" cy="124" r="4" fill="white" fill-opacity="0.3"/>
<circle cx="221.5" cy="124" r="4" fill="white" fill-opacity="0.3"/>
<circle cx="236.5" cy="124" r="4" fill="white" fill-opacity="0.3"/>
<circle cx="251" cy="124" r="4" fill="white" fill-opacity="0.3"/>
<circle cx="265.5" cy="124" r="4" fill="white" fill-opacity="0.3"/>
<circle cx="280.5" cy="124" r="4" fill="white" fill-opacity="0.3"/>
<circle cx="295.5" cy="124" r="4" fill="white" fill-opacity="0.3"/>
<circle cx="310" cy="124" r="4" fill="white" fill-opacity="0.3"/>
<circle cx="325" cy="124" r="4" fill="white" fill-opacity="0.3"/>
<circle cx="339.5" cy="124" r="4" fill="white" fill-opacity="0.3"/>
<circle cx="177" cy="99" r="4" fill="white" fill-opacity="0.3"/>
<circle cx="192" cy="99" r="4" fill="white" fill-opacity="0.3"/>
<circle cx="206.5" cy="99" r="4" fill="white" fill-opacity="0.3"/>
<circle cx="221" cy="99" r="4" fill="white" fill-opacity="0.3"/>
<circle cx="236" cy="99" r="4" fill="white" fill-opacity="0.3"/>
<circle cx="250.5" cy="99" r="4" fill="white" fill-opacity="0.3"/>
<circle cx="265" cy="99" r="4" fill="white" fill-opacity="0.3"/>
<circle cx="280" cy="99" r="4" fill="white" fill-opacity="0.3"/>
<circle cx="295" cy="99" r="4" fill="white" fill-opacity="0.3"/>
<circle cx="309.5" cy="99" r="4" fill="white" fill-opacity="0.3"/>
<circle cx="324.5" cy="99" r="4" fill="white" fill-opacity="0.3"/>
<circle cx="339" cy="99" r="4" fill="white" fill-opacity="0.3"/>
<circle cx="353.5" cy="99" r="4" fill="white" fill-opacity="0.3"/>
<circle cx="171" cy="62" r="4" fill="white" fill-opacity="0.3"/>
<circle cx="185.5" cy="62" r="4" fill="white" fill-opacity="0.3"/>
<circle cx="199.5" cy="62" r="4" fill="white" fill-opacity="0.3"/>
<circle cx="214.5" cy="62" r="4" fill="white" fill-opacity="0.3"/>
<circle cx="229" cy="62" r="4" fill="white" fill-opacity="0.3"/>
<circle cx="243.5" cy="62" r="4" fill="white" fill-opacity="0.3"/>
<circle cx="258.5" cy="62" r="4" fill="white" fill-opacity="0.3"/>
<circle cx="273" cy="62" r="4" fill="white" fill-opacity="0.3"/>
<circle cx="287.5" cy="62" r="4" fill="white" fill-opacity="0.3"/>
<circle cx="302.5" cy="62" r="4" fill="white" fill-opacity="0.3"/>
<circle cx="317.5" cy="62" r="4" fill="white" fill-opacity="0.3"/>
<circle cx="332" cy="62" r="4" fill="white" fill-opacity="0.3"/>
<circle cx="347" cy="62" r="4" fill="white" fill-opacity="0.3"/>
<circle cx="361.5" cy="62" r="4" fill="white" fill-opacity="0.3"/>
<circle cx="376" cy="62" r="4" fill="white" fill-opacity="0.3"/>
<circle cx="390.5" cy="62" r="4" fill="white" fill-opacity="0.3"/>
<circle cx="405" cy="62" r="4" fill="white" fill-opacity="0.3"/>
<circle cx="170.5" cy="36" r="4" fill="white" fill-opacity="0.3"/>
<circle cx="185" cy="36" r="4" fill="white" fill-opacity="0.3"/>
<circle cx="199" cy="36" r="4" fill="white" fill-opacity="0.3"/>
<circle cx="214" cy="36" r="4" fill="white" fill-opacity="0.3"/>
<circle cx="228.5" cy="36" r="4" fill="white" fill-opacity="0.3"/>
<circle cx="243" cy="36" r="4" fill="white" fill-opacity="0.3"/>
<circle cx="258" cy="36" r="4" fill="white" fill-opacity="0.3"/>
<circle cx="272.5" cy="36" r="4" fill="white" fill-opacity="0.3"/>
<circle cx="287" cy="36" r="4" fill="white" fill-opacity="0.3"/>
<circle cx="302" cy="36" r="4" fill="white" fill-opacity="0.3"/>
<circle cx="317" cy="36" r="4" fill="white" fill-opacity="0.3"/>
<circle cx="331.5" cy="36" r="4" fill="white" fill-opacity="0.3"/>
<circle cx="346.5" cy="36" r="4" fill="white" fill-opacity="0.3"/>
<circle cx="361" cy="36" r="4" fill="white" fill-opacity="0.3"/>
<circle cx="375.5" cy="36" r="4" fill="white" fill-opacity="0.3"/>
<circle cx="390" cy="36" r="4" fill="white" fill-opacity="0.3"/>
<circle cx="404.5" cy="36" r="4" fill="white" fill-opacity="0.3"/>
</g>
</svg>
