<svg width="31" height="36" viewBox="0 0 31 36" fill="none" xmlns="http://www.w3.org/2000/svg">
<path d="M25.2742 34.56C23.3142 36.46 21.1742 36.16 19.1142 35.26C16.9342 34.34 14.9342 34.3 12.6342 35.26C9.75416 36.5 8.23416 36.14 6.51416 34.56C-3.24584 24.5 -1.80584 9.18 9.27416 8.62C11.9742 8.76 13.8542 10.1 15.4342 10.22C17.7942 9.74 20.0542 8.36 22.5742 8.54C25.5942 8.78 27.8742 9.98 29.3742 12.14C23.1342 15.88 24.6142 24.1 30.3342 26.4C29.1942 29.4 27.7142 32.38 25.2542 34.58L25.2742 34.56ZM15.2342 8.5C14.9342 4.04 18.5542 0.36 22.7142 0C23.2942 5.16 18.0342 9 15.2342 8.5Z" fill="white"/>
</svg>
