<svg width="15" height="12" viewBox="0 0 15 12" fill="none" xmlns="http://www.w3.org/2000/svg">
<path d="M8.23867 0.30953C8.43692 0.111338 8.70577 0 8.9861 0C9.26643 0 9.53528 0.111338 9.73353 0.30953L14.4909 5.06688C14.6891 5.26513 14.8004 5.53398 14.8004 5.81431C14.8004 6.09464 14.6891 6.36349 14.4909 6.56174L9.73353 11.3191C9.53414 11.5117 9.2671 11.6182 8.98991 11.6158C8.71271 11.6134 8.44756 11.5022 8.25155 11.3062C8.05554 11.1102 7.94435 10.845 7.94194 10.5679C7.93953 10.2907 8.04609 10.0236 8.23867 9.82423L11.1005 6.8715H1.05719C0.776805 6.8715 0.507905 6.76012 0.309643 6.56185C0.111382 6.36359 0 6.09469 0 5.81431C0 5.53393 0.111382 5.26503 0.309643 5.06676C0.507905 4.8685 0.776805 4.75712 1.05719 4.75712H11.1005L8.23867 1.80439C8.04048 1.60614 7.92914 1.33729 7.92914 1.05696C7.92914 0.776634 8.04048 0.507782 8.23867 0.30953Z" fill="black"/>
</svg>
