<svg width="16" height="17" viewBox="0 0 16 17" fill="none" xmlns="http://www.w3.org/2000/svg">
<path d="M9.8449 4.12775L4.63099 9.34167C4.47976 9.48773 4.35914 9.66244 4.27616 9.85561C4.19318 10.0488 4.1495 10.2566 4.14767 10.4668C4.14585 10.677 4.18591 10.8855 4.26552 11.0801C4.34513 11.2747 4.4627 11.4515 4.61136 11.6001C4.76002 11.7488 4.93681 11.8664 5.13139 11.946C5.32598 12.0256 5.53447 12.0656 5.7447 12.0638C5.95494 12.062 6.1627 12.0183 6.35588 11.9353C6.54905 11.8524 6.72376 11.7317 6.86982 11.5805L11.9476 6.36659C12.5244 5.76935 12.8436 4.96944 12.8364 4.13915C12.8292 3.30886 12.4961 2.51462 11.909 1.9275C11.3219 1.34037 10.5276 1.00733 9.69734 1.00012C8.86705 0.992905 8.06714 1.31209 7.4699 1.88892L2.39136 7.10205C1.50049 7.99292 1 9.2012 1 10.4611C1 11.721 1.50049 12.9293 2.39136 13.8201C3.28223 14.711 4.49052 15.2115 5.7504 15.2115C7.01029 15.2115 8.21857 14.711 9.10944 13.8201L14.0629 8.87775" stroke="#161348" stroke-width="2" stroke-linecap="round" stroke-linejoin="round"/>
</svg>
