<svg width="15" height="18" viewBox="0 0 15 18" fill="none" xmlns="http://www.w3.org/2000/svg">
<path d="M0.751288 16.5625C0.751288 16.942 1.05929 17.25 1.43879 17.25H11.2031C12.2692 17.25 12.668 16.9154 12.668 15.7833V14.4588M0.751288 16.5625C0.751288 16.0155 0.968587 15.4909 1.35538 15.1041C1.74217 14.7173 2.26678 14.5 2.81379 14.5H12.1198C12.327 14.5 12.5097 14.4863 12.668 14.4588M0.751288 16.5625V3.68333C0.751288 2.642 0.685288 1.49342 1.75229 0.949833C2.14462 0.75 2.65795 0.75 3.68462 0.75H12.118C13.251 0.75 13.5846 1.15058 13.5846 2.21667V13.0333C13.5846 13.9454 13.3261 14.3396 12.668 14.4588" stroke="#038AFF" stroke-width="1.5" stroke-linecap="round" stroke-linejoin="round"/>
</svg>
