<svg width="14" height="14" viewBox="0 0 14 14" fill="none" xmlns="http://www.w3.org/2000/svg">
<path fill-rule="evenodd" clip-rule="evenodd" d="M6.88446 0C3.08845 0 0 3.08845 0 6.88427C0 10.6805 3.08845 13.7687 6.88446 13.7687C10.6805 13.7687 13.7689 10.6807 13.7689 6.88446C13.7689 3.08826 10.6807 0 6.88446 0ZM11.4363 3.17471C12.2844 4.20824 12.753 5.50101 12.7642 6.83791C12.5702 6.79649 10.6261 6.40262 8.66951 6.64848C8.51065 6.25762 8.33828 5.87238 8.15271 5.49347C10.3269 4.60541 11.3124 3.34267 11.4363 3.17471ZM6.88446 1.01289C8.37862 1.01289 9.74415 1.57339 10.7827 2.49451C10.6769 2.64537 9.79165 3.83515 7.7007 4.6189C6.73721 2.84848 5.66903 1.39403 5.50658 1.17629C5.95783 1.06773 6.42033 1.01288 6.88446 1.01289ZM4.38463 1.57187C4.53948 1.78429 5.59037 3.24064 6.56469 4.97249C3.81406 5.70304 1.39137 5.69221 1.12841 5.68898C1.50955 3.86441 2.73923 2.34783 4.38463 1.57187ZM1.00396 6.8932C1.00396 6.83316 1.00497 6.77331 1.007 6.71365C1.26426 6.71897 4.11407 6.75564 7.05052 5.87689C7.2188 6.20502 7.37776 6.53785 7.52723 6.87496C7.44946 6.89675 7.37219 6.92005 7.29543 6.94488C4.26265 7.92509 2.64879 10.5974 2.5156 10.8254C1.57662 9.78272 1.00396 8.4037 1.00396 6.8932ZM6.88446 12.7741C5.57634 12.7754 4.3055 12.3384 3.27484 11.5328C3.38086 11.3164 4.57159 9.01607 7.88823 7.86049L7.92718 7.84738C8.75273 9.99267 9.09397 11.7908 9.18156 12.3071C8.45512 12.6158 7.6738 12.7747 6.88446 12.7741ZM10.1699 11.7682C10.1099 11.4105 9.79697 9.68905 9.02766 7.57549C10.8703 7.28061 12.4893 7.7634 12.6905 7.82667C12.4285 9.46314 11.4893 10.8762 10.1699 11.7682Z" fill="white"/>
</svg>
