<svg width="18" height="14" viewBox="0 0 18 14" fill="none" xmlns="http://www.w3.org/2000/svg">
<path d="M1.04948 6.81668C0.983506 6.63894 0.983506 6.44342 1.04948 6.26568C1.69208 4.70756 2.78285 3.37534 4.18351 2.43789C5.58417 1.50044 7.23164 1 8.91707 1C10.6025 1 12.25 1.50044 13.6506 2.43789C15.0513 3.37534 16.1421 4.70756 16.7846 6.26568C16.8506 6.44342 16.8506 6.63894 16.7846 6.81668C16.1421 8.37479 15.0513 9.70702 13.6506 10.6445C12.25 11.5819 10.6025 12.0824 8.91707 12.0824C7.23164 12.0824 5.58417 11.5819 4.18351 10.6445C2.78285 9.70702 1.69208 8.37479 1.04948 6.81668Z" stroke="#161348" stroke-width="2" stroke-linecap="round" stroke-linejoin="round"/>
<path d="M8.91699 8.91614C10.2287 8.91614 11.292 7.85281 11.292 6.54114C11.292 5.22946 10.2287 4.16614 8.91699 4.16614C7.60532 4.16614 6.54199 5.22946 6.54199 6.54114C6.54199 7.85281 7.60532 8.91614 8.91699 8.91614Z" stroke="#161348" stroke-width="2" stroke-linecap="round" stroke-linejoin="round"/>
</svg>
