<svg width="18" height="14" viewBox="0 0 18 14" fill="none" xmlns="http://www.w3.org/2000/svg">
<path d="M1.75 14C1.26875 14 0.856917 13.8288 0.5145 13.4864C0.172083 13.144 0.000583333 12.7318 0 12.25V1.75C0 1.26875 0.1715 0.856917 0.5145 0.5145C0.8575 0.172083 1.26933 0.000583333 1.75 0H6.27813C6.51146 0 6.734 0.0437501 6.94575 0.13125C7.1575 0.21875 7.34329 0.342708 7.50312 0.503125L8.75 1.75H15.75C16.2313 1.75 16.6434 1.9215 16.9864 2.2645C17.3294 2.6075 17.5006 3.01933 17.5 3.5V12.25C17.5 12.7312 17.3288 13.1434 16.9864 13.4864C16.644 13.8294 16.2318 14.0006 15.75 14H1.75ZM1.75 12.25H15.75V3.5H8.02812L6.27813 1.75H1.75V12.25Z" fill="#161348"/>
</svg>
