<svg width="17" height="15" viewBox="0 0 17 15" fill="none" xmlns="http://www.w3.org/2000/svg">
<path fill-rule="evenodd" clip-rule="evenodd" d="M8.31413 2.15655L7.45359 1.296C7.05026 0.887235 6.57006 0.562285 6.04063 0.339865C5.5112 0.117445 4.943 0.00194825 4.36875 2.44362e-05C3.7945 -0.00189937 3.22555 0.109788 2.69464 0.328656C2.16373 0.547523 1.68136 0.869248 1.27531 1.27531C0.869248 1.68136 0.547524 2.16373 0.328656 2.69464C0.109788 3.22555 -0.00189937 3.7945 2.44362e-05 4.36875C0.00194825 4.943 0.117445 5.5112 0.339865 6.04063C0.562285 6.57006 0.887235 7.05026 1.296 7.45359L8.29355 14.4511L8.29513 14.4495L8.31571 14.4701L15.3133 7.47259C15.722 7.06926 16.047 6.58906 16.2694 6.05963C16.4918 5.5302 16.6073 4.962 16.6092 4.38775C16.6112 3.8135 16.4995 3.24455 16.2806 2.71364C16.0617 2.18273 15.74 1.70036 15.334 1.29431C14.9279 0.888248 14.4455 0.566523 13.9146 0.347656C13.3837 0.128788 12.8148 0.0171006 12.2405 0.0190244C11.6663 0.0209482 11.0981 0.136445 10.5686 0.358865C10.0392 0.581285 9.559 0.906235 9.15567 1.315L8.31413 2.15655ZM8.29513 12.2107L12.2028 8.30225L13.3507 7.19392H13.3523L14.1938 6.35317C14.7135 5.83351 15.0054 5.1287 15.0054 4.3938C15.0054 3.65889 14.7135 2.95408 14.1938 2.43442C13.6742 1.91476 12.9694 1.62282 12.2345 1.62282C11.4996 1.62282 10.7947 1.91476 10.2751 2.43442L8.31492 4.39538L8.30938 4.38984L6.33417 2.41621C5.81451 1.89655 5.1097 1.60461 4.3748 1.60461C3.63989 1.60461 2.93508 1.89655 2.41542 2.41621C1.89576 2.93587 1.60382 3.64068 1.60382 4.37559C1.60382 5.1105 1.89576 5.8153 2.41542 6.33496L4.42625 8.3458L4.42705 8.34342L8.29513 12.2107Z" fill="#161348"/>
</svg>
