<svg width="15" height="18" viewBox="0 0 15 18" fill="none" xmlns="http://www.w3.org/2000/svg">
<path d="M1 15.875V1.875C1 1.64294 1.09219 1.42038 1.25628 1.25628C1.42038 1.09219 1.64294 1 1.875 1H7.2755C7.73959 1.0001 8.18464 1.18454 8.51275 1.51275L12.7372 5.73725C13.0655 6.06536 13.2499 6.51041 13.25 6.9745V15.875C13.25 16.1071 13.1578 16.3296 12.9937 16.4937C12.8296 16.6578 12.6071 16.75 12.375 16.75H1.875C1.64294 16.75 1.42038 16.6578 1.25628 16.4937C1.09219 16.3296 1 16.1071 1 15.875Z" stroke="#161348" stroke-width="2" stroke-linejoin="round"/>
<path d="M7.125 1V6.25C7.125 6.48206 7.21719 6.70462 7.38128 6.86872C7.54538 7.03281 7.76794 7.125 8 7.125H13.25" stroke="#161348" stroke-width="2" stroke-linejoin="round"/>
</svg>
