<svg width="37" height="39" viewBox="0 0 37 39" fill="none" xmlns="http://www.w3.org/2000/svg">
<path d="M26.3506 13.2358L5.57271 1.75997C4.96192 1.41303 4.30143 1.16205 3.61438 1.01581C3.05846 0.951814 2.4976 1.08337 2.02812 1.38789M26.3506 13.2358L20.6029 19.1108M26.3506 13.2358L33.2048 17.0252C35.6429 18.3764 35.6429 19.806 33.2048 21.1573L26.3506 24.9466L20.6029 19.0716L26.3506 13.1966V13.2358ZM20.6029 19.1108L2.02812 1.38789M20.6029 19.1108L2.04771 36.8043M20.6029 19.1108L26.3506 24.9858L5.61188 36.4616C4.47604 37.0883 2.94854 37.6268 2.04771 36.8043M2.02812 1.38789L20.6323 19.1108L2.04771 36.8043M2.02812 1.38789L1.97917 1.39768C1.3525 1.94601 1 3.07206 1 4.70726V33.5143C1 35.1496 1.36229 36.256 2.04771 36.8043" stroke="white" stroke-width="2" stroke-linecap="round" stroke-linejoin="round"/>
</svg>
