<svg width="9" height="10" viewBox="0 0 9 10" fill="none" xmlns="http://www.w3.org/2000/svg">
<path d="M7.81943 3.17125L2.71229 0.242307C2.43594 0.0827275 2.12227 -0.000869689 1.80315 6.82229e-06C1.48403 0.000883333 1.17083 0.0862023 0.895358 0.247298C0.619884 0.408393 0.391954 0.639527 0.234717 0.917221C0.0774797 1.19491 -0.00346184 1.50928 0.000113516 1.82838V7.7074C0.000113516 8.18695 0.190611 8.64685 0.529699 8.98594C0.868787 9.32502 1.32869 9.51552 1.80823 9.51552C2.12568 9.51498 2.43742 9.43112 2.71229 9.27232L7.81943 6.34338C8.09385 6.18456 8.32169 5.95637 8.48007 5.6817C8.63846 5.40702 8.72184 5.09553 8.72184 4.77846C8.72184 4.4614 8.63846 4.1499 8.48007 3.87523C8.32169 3.60056 8.09385 3.37237 7.81943 3.21354V3.17125ZM7.29074 5.38646L2.1836 8.35769C2.06913 8.42256 1.93981 8.45666 1.80823 8.45666C1.67666 8.45666 1.54733 8.42256 1.43286 8.35769C1.31872 8.29179 1.22393 8.197 1.15804 8.08285C1.09215 7.96869 1.05747 7.83921 1.05749 7.7074V1.80723C1.05747 1.67542 1.09215 1.54594 1.15804 1.43179C1.22393 1.31763 1.31872 1.22284 1.43286 1.15694C1.54772 1.09285 1.67671 1.05833 1.80823 1.05649C1.93963 1.05919 2.06842 1.09365 2.1836 1.15694L7.29074 4.10703C7.40493 4.1729 7.49976 4.26768 7.56569 4.38183C7.63162 4.49599 7.66634 4.62549 7.66634 4.75732C7.66634 4.88914 7.63162 5.01864 7.56569 5.1328C7.49976 5.24695 7.40493 5.34173 7.29074 5.4076V5.38646Z" fill="black"/>
</svg>
