<svg width="18" height="18" viewBox="0 0 18 18" fill="none" xmlns="http://www.w3.org/2000/svg">
<path d="M5.66802 13.8797L8.96772 11.8894L12.2674 13.9059L11.4032 10.1348L14.3101 7.62073L10.4866 7.28029L8.96772 3.71871L7.44881 7.2541L3.62535 7.59455L6.53223 10.1348L5.66802 13.8797ZM8.96772 14.3511L4.6205 16.9699C4.42845 17.0921 4.22767 17.1445 4.01817 17.127C3.80866 17.1095 3.62535 17.0397 3.46822 16.9175C3.31109 16.7953 3.18888 16.6427 3.10159 16.4597C3.01429 16.2768 2.99683 16.0715 3.04921 15.8438L4.20149 10.8942L0.351838 7.56836C0.177251 7.41123 0.0683081 7.2321 0.0250105 7.03098C-0.0182872 6.82985 -0.00536779 6.63362 0.0637688 6.44227C0.132905 6.25092 0.237658 6.09379 0.378026 5.97088C0.518394 5.84797 0.71044 5.76941 0.954163 5.73519L6.03465 5.28999L7.99876 0.628514C8.08605 0.41901 8.22153 0.261881 8.4052 0.157128C8.58886 0.052376 8.77637 0 8.96772 0C9.15907 0 9.34657 0.052376 9.53024 0.157128C9.7139 0.261881 9.84938 0.41901 9.93668 0.628514L11.9008 5.28999L16.9813 5.73519C17.2257 5.77011 17.4177 5.84867 17.5574 5.97088C17.6971 6.09309 17.8018 6.25022 17.8717 6.44227C17.9415 6.63432 17.9548 6.8309 17.9115 7.03203C17.8682 7.23315 17.7589 7.41193 17.5836 7.56836L13.7339 10.8942L14.8862 15.8438C14.9386 16.0708 14.9211 16.2761 14.8338 16.4597C14.7466 16.6434 14.6243 16.796 14.4672 16.9175C14.3101 17.039 14.1268 17.1089 13.9173 17.127C13.7078 17.1452 13.507 17.0928 13.3149 16.9699L8.96772 14.3511Z" id="star" fill="currentColor"/>
</svg>
